<svg height="79" width="91" xmlns="http://www.w3.org/2000/svg"><path d="M31.463 30.527c-4.007 36.672 29.02 42.329 38.4 31.795-16.513 40.866-55.304-5.364-38.4-31.795zm-6.352-4.584c-14.265 2.048-35.468 47.4-10.357 42.231-15.438-5.56.098-37.647 10.357-42.23zm0-5.754c-4.983-2.34-23.157 4.584-24.525 18.53 3.42-7.412 12.312-17.457 24.525-18.53zm6.254-5.17c-7.621-5.949-16.709.879-19.542 2.439 7.621-8.875 19.053-7.412 19.542-2.438zm7.23-1.852c5.277-4.78-2.638-13.85-10.26-6.535 2.737-1.17 11.921-2.73 10.26 6.535zm8.697 1.365c10.064-9.558 1.66-13.264-.977-13.46 14.07-3.608 7.816 11.705.977 13.46zm1.66 5.852C59.409 24.383 90.578 7.12 65.76 3.706c5.667 1.366 6.937 12.777-16.806 16.678zm-7.328 8.68c6.938 19.994 68.886 18.14 42.211-8.875 5.765 9.265-8.598 25.748-42.21 8.875z" fill="#d10303" fill-rule="evenodd"/></svg>